<svg xmlns="http://www.w3.org/2000/svg" viewBox="0 0 420 360" fill="none"><path d="M67 315c39-32 134-25 118-88-13-54 102-25 124-87" stroke="#5A6675" stroke-opacity=".35" stroke-width="2" stroke-dasharray="6 9"/><circle cx="300" cy="103" r="59" fill="#F7BB17"/><path d="M232 164h136M300 21V8M238 49l-10-10M362 49l10-10" stroke="#16202E" stroke-width="3" stroke-linecap="round"/><path d="m209 213-12-6c-5-14-14-17-18-4l-6 19 28 8z" fill="#16202E"/><path d="m163 260 8 8c3 11 17 15 21 2l2-20-22-5z" fill="#F3A52D"/><path d="m108 277-14-5c-11-12-23-6-20 6l6 17 31-6z" fill="#16202E"/><path d="m257 186 10 7c8 7 18 2 13-10l-6-13-21 4z" fill="#F3A52D"/><path d="m107 128 52-27 24 40-52 29z" fill="#FAF8F4" stroke="#16202E" stroke-width="2"/><path d="m116 140 41-23M121 150l26-14" stroke="#F3A52D" stroke-width="3" stroke-linecap="round"/><path d="M353 238h22M364 227v22M72 184h18M81 175v18" stroke="#16202E" stroke-width="2" stroke-linecap="round"/><circle cx="335" cy="296" r="5" fill="#F7BB17"/></svg>
